<svg xmlns="http://www.w3.org/2000/svg" viewBox="0 0 1024 1024">
<rect width="1024" height="1024" fill="#0d0e14"/>
<g transform="translate(-27.33 49.54) scale(0.8751)">
<g fill="#fbbf24">
<path d="
  M 852.33 498.79
  C 851.95 498.96 852.02 499.52 852.43 499.58
  C 868.04 502.08 883.01 506.18 897.36 511.89
  C 909.28 516.64 922.07 523.79 932.23 532.22
  C 960.92 556.01 972.95 589.78 970.48 627.46
  C 968.45 658.57 955.17 688.52 934.75 711.73
  C 895.19 756.71 833.12 774.60 774.49 774.76
  C 727.49 774.88 658.51 774.90 567.55 774.82
  C 566.79 774.82 566.05 775.04 565.41 775.45
  L 532.26 797.04
  C 532.00 797.21 531.64 797.08 531.56 796.77
  C 531.50 796.56 531.54 796.38 531.69 796.21
  C 539.14 787.62 545.27 779.30 552.12 770.94
  C 574.50 743.58 599.70 712.47 627.72 677.60
  C 627.95 677.33 628.28 677.17 628.64 677.16
  C 690.17 676.63 734.15 676.29 760.56 676.14
  C 780.22 676.03 799.41 673.86 816.79 666.27
  C 825.45 662.49 835.40 654.87 841.11 646.87
  C 849.16 635.59 853.50 620.25 848.13 607.15
  C 841.70 591.49 822.19 589.19 807.53 588.48
  C 800.20 588.13 787.24 588.18 768.65 588.65
  C 749.00 589.14 723.87 589.98 693.26 591.17
  C 692.79 591.19 692.52 590.64 692.82 590.28
  L 788.47 473.59
  C 788.72 473.28 788.49 472.82 788.09 472.84
  L 669.34 478.45
  C 668.99 478.47 668.77 478.07 668.97 477.78
  C 681.04 459.60 694.06 442.26 708.01 425.75
  C 714.30 418.32 720.67 411.35 727.12 404.84
  C 727.35 404.62 727.71 404.61 727.95 404.83
  C 729.50 406.27 733.36 409.82 739.54 415.49
  C 743.86 419.46 749.75 415.92 751.11 411.36
  C 751.92 408.65 751.26 407.38 749.05 405.33
  C 746.59 403.05 742.96 399.53 738.16 394.77
  C 737.87 394.48 737.88 394.00 738.18 393.72
  L 751.68 381.49
  C 752.02 381.18 752.54 381.18 752.87 381.49
  C 760.15 388.08 763.85 391.44 763.98 391.57
  C 767.58 395.08 769.78 397.37 774.07 394.67
  C 776.46 393.16 777.82 391.28 778.17 389.05
  C 778.43 387.39 778.08 386.11 777.13 385.22
  C 772.90 381.22 768.62 377.04 764.30 372.68
  C 764.04 372.42 764.07 371.99 764.37 371.77
  L 778.84 361.03
  C 779.15 360.80 779.59 360.82 779.87 361.08
  C 787.41 368.05 791.71 372.11 792.76 373.27
  C 795.67 376.48 799.76 375.72 802.60 373.05
  C 806.21 369.65 806.09 366.30 802.24 362.99
  C 798.57 359.84 795.15 356.56 791.98 353.13
  C 791.74 352.87 791.79 352.46 792.09 352.27
  L 807.23 342.72
  C 807.63 342.47 808.15 342.52 808.49 342.84
  C 812.56 346.68 816.91 350.86 821.56 355.39
  C 822.39 356.20 823.71 356.48 825.52 356.24
  C 830.01 355.64 833.72 351.91 832.31 347.20
  C 832.06 346.35 831.05 345.18 829.29 343.67
  C 826.24 341.06 823.52 338.55 821.13 336.16
  C 820.77 335.79 820.83 335.19 821.25 334.90
  C 822.12 334.30 823.04 333.76 824.03 333.28
  C 846.04 322.66 868.68 312.93 892.97 308.04
  C 893.20 307.99 893.20 307.66 892.97 307.61
  C 892.18 307.44 891.35 307.38 890.49 307.45
  C 863.18 309.41 836.69 315.42 811.04 325.47
  C 810.68 325.61 810.28 325.53 810.00 325.28
  C 805.07 320.90 801.22 317.47 798.45 314.98
  C 793.89 310.89 782.46 318.64 788.90 324.39
  C 788.97 324.46 791.41 326.62 796.23 330.87
  C 796.76 331.34 796.66 332.19 796.03 332.52
  L 779.76 340.96
  C 779.40 341.15 778.96 341.09 778.67 340.81
  C 777.90 340.10 774.84 337.31 769.47 332.44
  C 766.68 329.90 763.59 329.82 760.22 332.21
  C 757.07 334.44 755.26 338.42 758.58 341.37
  C 762.36 344.72 764.83 346.91 765.98 347.94
  C 766.42 348.33 766.36 349.02 765.87 349.33
  L 750.32 359.14
  C 750.09 359.28 749.80 359.26 749.59 359.08
  C 743.22 353.52 739.98 350.70 739.88 350.61
  C 736.53 347.60 732.82 349.34 729.83 351.87
  C 727.98 353.44 727.36 355.51 727.99 358.06
  C 728.09 358.44 728.29 358.78 728.58 359.05
  L 737.24 367.02
  C 737.48 367.24 737.46 367.62 737.20 367.81
  L 721.76 379.28
  C 721.50 379.47 721.14 379.46 720.89 379.24
  C 716.32 375.22 713.51 372.73 712.45 371.77
  C 708.41 368.13 704.92 369.87 701.44 373.18
  C 699.84 374.71 699.39 376.67 700.08 379.07
  C 700.21 379.51 700.46 379.91 700.79 380.23
  L 709.64 388.60
  C 709.81 388.75 709.80 389.02 709.62 389.17
  C 689.83 405.59 670.71 422.79 652.26 440.76
  C 621.16 471.07 591.85 501.62 564.32 532.39
  C 564.19 532.53 563.98 532.56 563.82 532.45
  C 563.67 532.35 563.61 532.14 563.69 531.97
  C 569.25 520.36 574.72 508.62 580.10 496.77
  C 581.79 493.06 582.76 490.90 583.03 490.31
  C 587.66 479.86 593.51 467.03 600.59 451.83
  C 602.78 447.12 604.96 441.41 607.55 436.36
  C 608.20 435.11 609.17 433.06 610.48 430.21
  C 639.93 366.05 665.01 313.74 694.57 252.55
  C 696.05 249.48 697.67 246.26 699.42 242.89
  C 699.56 242.61 699.85 242.43 700.17 242.43
  C 744.00 241.77 783.93 242.74 824.85 250.79
  C 846.44 255.03 866.64 261.80 885.45 271.10
  C 907.28 281.90 927.63 297.66 940.18 318.83
  C 963.23 357.72 954.53 402.40 929.16 437.71
  C 917.13 454.46 901.24 468.77 884.27 480.63
  C 874.01 487.80 863.36 493.86 852.33 498.79
  Z"
/>
</g>
<g fill="#ffffff">
<path d="
  M 503.57 597.03
  C 503.43 597.34 503.67 597.69 504.01 597.66
  L 625.89 587.53
  C 626.34 587.49 626.65 587.97 626.44 588.37
  L 504.48 815.01
  C 504.43 815.11 504.31 815.15 504.21 815.11
  C 504.10 815.08 504.05 814.97 504.07 814.86
  L 513.18 775.05
  C 513.21 774.95 513.13 774.85 513.02 774.85
  L 262.56 774.85
  C 262.21 774.85 262.07 774.39 262.37 774.20
  L 305.98 746.70
  C 306.55 746.34 306.99 745.81 307.24 745.17
  L 480.33 303.77
  C 480.41 303.57 480.35 303.34 480.19 303.20
  L 411.53 242.85
  C 411.28 242.63 411.43 242.22 411.76 242.22
  L 665.13 242.22
  C 665.47 242.22 665.70 242.57 665.57 242.89
  C 664.46 245.50 663.58 247.51 662.92 248.94
  C 627.39 325.67 607.96 367.66 604.65 374.90
  C 604.40 375.44 570.71 449.48 503.57 597.03
  Z"
/>
</g>
</g>
</svg>
